<svg xmlns="http://www.w3.org/2000/svg" viewBox="0 0 24 24" fill="#E4405F">
  <path d="M7.75 2h8.5A5.76 5.76 0 0 1 22 7.75v8.5A5.76 5.76 0 0 1 16.25 22h-8.5A5.76 5.76 0 0 1 2 16.25v-8.5A5.76 5.76 0 0 1 7.75 2Zm-.2 1.96A3.59 3.59 0 0 0 3.96 7.55v8.9a3.59 3.59 0 0 0 3.59 3.59h8.9a3.59 3.59 0 0 0 3.59-3.59v-8.9a3.59 3.59 0 0 0-3.59-3.59h-8.9Zm9.76 1.47a1.28 1.28 0 1 1 0 2.56 1.28 1.28 0 0 1 0-2.56ZM12 7.3A4.7 4.7 0 1 1 7.3 12 4.7 4.7 0 0 1 12 7.3Zm0 1.96A2.74 2.74 0 1 0 14.74 12 2.74 2.74 0 0 0 12 9.26Z"/>
</svg>
