<svg xmlns="http://www.w3.org/2000/svg" viewBox="0 0 24 24" fill="#25D366">
  <path d="M20.52 3.48A11.86 11.86 0 0 0 12.08 0C5.54 0 .22 5.32.22 11.86c0 2.09.55 4.13 1.58 5.93L0 24l6.41-1.68a11.8 11.8 0 0 0 5.67 1.45h.01c6.54 0 11.86-5.32 11.86-11.86 0-3.17-1.23-6.16-3.43-8.43Zm-8.44 18.3h-.01a9.87 9.87 0 0 1-5.02-1.37l-.36-.21-3.8 1 1.02-3.7-.23-.38a9.88 9.88 0 1 1 8.4 4.66Zm5.42-7.4c-.3-.15-1.78-.88-2.05-.98-.28-.1-.48-.15-.69.15-.2.3-.79.98-.96 1.18-.18.2-.35.23-.65.08-.3-.15-1.26-.47-2.4-1.5-.88-.78-1.47-1.74-1.64-2.03-.17-.3-.02-.46.13-.61.13-.13.3-.35.45-.53.15-.18.2-.3.3-.5.1-.2.05-.38-.03-.53-.08-.15-.69-1.66-.94-2.28-.25-.6-.5-.51-.69-.52h-.58c-.2 0-.53.08-.8.38-.28.3-1.05 1.03-1.05 2.5 0 1.48 1.08 2.9 1.23 3.1.15.2 2.11 3.22 5.11 4.52.71.31 1.26.5 1.69.64.71.22 1.35.19 1.85.12.56-.08 1.78-.73 2.03-1.43.25-.7.25-1.3.18-1.42-.07-.12-.27-.2-.56-.35Z"/>
</svg>
